# xmcd CD database file
#
# Track frame offsets:
#	150
#	26175
#	38035
#	55739
#	82870
#	100944
#	120010
#	135356
#	157208
#	184027
#	187734
#	211403
#	233847
#
# Disc length: 3265 seconds
#
# Revision: 0
# Processed by: cddbd v1.5.1PL0 Copyright (c) Steve Scherf et al.
# Submitted via: CDex 1.50Beta7
#
DISCID=9b0cbf0d
DTITLE=Helin-Mari Arderi Trio - Su Aknast Näen
DYEAR=2004
DGENRE=Jazz
TTITLE0=Su aknast näen - From Your Window
TTITLE1=Chovendo Na Roseira - Double Rainbow
TTITLE2=Suvi
TTITLE3=O Amor em Paz - Sind hoian ma
TTITLE4=Softly, As In a Morning Sunrise
TTITLE5=Suvine samba
TTITLE6=Up Above - Väike päike
TTITLE7=Blue Moon
TTITLE8=Päeval-ööl - Night and Day
TTITLE9=Intro
TTITLE10=Upa Neguinho
TTITLE11=Mu süda oled sa
TTITLE12=What'll I Do? - Mis teen küll ma?
EXTD=YEAR: 2004
EXTT0=
EXTT1=
EXTT2=
EXTT3=
EXTT4=
EXTT5=
EXTT6=
EXTT7=
EXTT8=
EXTT9=
EXTT10=
EXTT11=
EXTT12=
PLAYORDER=
